<?xml version="1.0" encoding="utf-8" standalone="no"?>
<!DOCTYPE svg PUBLIC "-//W3C//DTD SVG 1.1//EN"
  "http://www.w3.org/Graphics/SVG/1.1/DTD/svg11.dtd">
<!-- Created with matplotlib (https://matplotlib.org/) -->
<svg height="345.6pt" version="1.1" viewBox="0 0 460.8 345.6" width="460.8pt" xmlns="http://www.w3.org/2000/svg" xmlns:xlink="http://www.w3.org/1999/xlink">
 <defs>
  <style type="text/css">
*{stroke-linecap:butt;stroke-linejoin:round;}
  </style>
 </defs>
 <g id="figure_1">
  <g id="patch_1">
   <path d="M 0 345.6 
L 460.8 345.6 
L 460.8 0 
L 0 0 
z
" style="fill:#ffffff;"/>
  </g>
  <g id="axes_1">
   <g id="patch_2">
    <path d="M 57.6 307.584 
L 414.72 307.584 
L 414.72 41.472 
L 57.6 41.472 
z
" style="fill:#eaeaf2;"/>
   </g>
   <g id="matplotlib.axis_1">
    <g id="xtick_1">
     <g id="line2d_1">
      <path clip-path="url(#p3d90bd6c48)" d="M 73.560611 307.584 
L 73.560611 41.472 
" style="fill:none;stroke:#ffffff;stroke-linecap:round;"/>
     </g>
     <g id="text_1">
      <!-- 0 -->
      <defs>
       <path d="M 31.78125 66.40625 
Q 24.171875 66.40625 20.328125 58.90625 
Q 16.5 51.421875 16.5 36.375 
Q 16.5 21.390625 20.328125 13.890625 
Q 24.171875 6.390625 31.78125 6.390625 
Q 39.453125 6.390625 43.28125 13.890625 
Q 47.125 21.390625 47.125 36.375 
Q 47.125 51.421875 43.28125 58.90625 
Q 39.453125 66.40625 31.78125 66.40625 
z
M 31.78125 74.21875 
Q 44.046875 74.21875 50.515625 64.515625 
Q 56.984375 54.828125 56.984375 36.375 
Q 56.984375 17.96875 50.515625 8.265625 
Q 44.046875 -1.421875 31.78125 -1.421875 
Q 19.53125 -1.421875 13.0625 8.265625 
Q 6.59375 17.96875 6.59375 36.375 
Q 6.59375 54.828125 13.0625 64.515625 
Q 19.53125 74.21875 31.78125 74.21875 
z
" id="DejaVuSans-48"/>
      </defs>
      <g style="fill:#262626;" transform="translate(70.061236 325.442281)scale(0.11 -0.11)">
       <use xlink:href="#DejaVuSans-48"/>
      </g>
     </g>
    </g>
    <g id="xtick_2">
     <g id="line2d_2">
      <path clip-path="url(#p3d90bd6c48)" d="M 124.710348 307.584 
L 124.710348 41.472 
" style="fill:none;stroke:#ffffff;stroke-linecap:round;"/>
     </g>
     <g id="text_2">
      <!-- 50000 -->
      <defs>
       <path d="M 10.796875 72.90625 
L 49.515625 72.90625 
L 49.515625 64.59375 
L 19.828125 64.59375 
L 19.828125 46.734375 
Q 21.96875 47.46875 24.109375 47.828125 
Q 26.265625 48.1875 28.421875 48.1875 
Q 40.625 48.1875 47.75 41.5 
Q 54.890625 34.8125 54.890625 23.390625 
Q 54.890625 11.625 47.5625 5.09375 
Q 40.234375 -1.421875 26.90625 -1.421875 
Q 22.3125 -1.421875 17.546875 -0.640625 
Q 12.796875 0.140625 7.71875 1.703125 
L 7.71875 11.625 
Q 12.109375 9.234375 16.796875 8.0625 
Q 21.484375 6.890625 26.703125 6.890625 
Q 35.15625 6.890625 40.078125 11.328125 
Q 45.015625 15.765625 45.015625 23.390625 
Q 45.015625 31 40.078125 35.4375 
Q 35.15625 39.890625 26.703125 39.890625 
Q 22.75 39.890625 18.8125 39.015625 
Q 14.890625 38.140625 10.796875 36.28125 
z
" id="DejaVuSans-53"/>
      </defs>
      <g style="fill:#262626;" transform="translate(107.213473 325.442281)scale(0.11 -0.11)">
       <use xlink:href="#DejaVuSans-53"/>
       <use x="63.623047" xlink:href="#DejaVuSans-48"/>
       <use x="127.246094" xlink:href="#DejaVuSans-48"/>
       <use x="190.869141" xlink:href="#DejaVuSans-48"/>
       <use x="254.492188" xlink:href="#DejaVuSans-48"/>
      </g>
     </g>
    </g>
    <g id="xtick_3">
     <g id="line2d_3">
      <path clip-path="url(#p3d90bd6c48)" d="M 175.860086 307.584 
L 175.860086 41.472 
" style="fill:none;stroke:#ffffff;stroke-linecap:round;"/>
     </g>
     <g id="text_3">
      <!-- 100000 -->
      <defs>
       <path d="M 12.40625 8.296875 
L 28.515625 8.296875 
L 28.515625 63.921875 
L 10.984375 60.40625 
L 10.984375 69.390625 
L 28.421875 72.90625 
L 38.28125 72.90625 
L 38.28125 8.296875 
L 54.390625 8.296875 
L 54.390625 0 
L 12.40625 0 
z
" id="DejaVuSans-49"/>
      </defs>
      <g style="fill:#262626;" transform="translate(154.863836 325.442281)scale(0.11 -0.11)">
       <use xlink:href="#DejaVuSans-49"/>
       <use x="63.623047" xlink:href="#DejaVuSans-48"/>
       <use x="127.246094" xlink:href="#DejaVuSans-48"/>
       <use x="190.869141" xlink:href="#DejaVuSans-48"/>
       <use x="254.492188" xlink:href="#DejaVuSans-48"/>
       <use x="318.115234" xlink:href="#DejaVuSans-48"/>
      </g>
     </g>
    </g>
    <g id="xtick_4">
     <g id="line2d_4">
      <path clip-path="url(#p3d90bd6c48)" d="M 227.009823 307.584 
L 227.009823 41.472 
" style="fill:none;stroke:#ffffff;stroke-linecap:round;"/>
     </g>
     <g id="text_4">
      <!-- 150000 -->
      <g style="fill:#262626;" transform="translate(206.013573 325.442281)scale(0.11 -0.11)">
       <use xlink:href="#DejaVuSans-49"/>
       <use x="63.623047" xlink:href="#DejaVuSans-53"/>
       <use x="127.246094" xlink:href="#DejaVuSans-48"/>
       <use x="190.869141" xlink:href="#DejaVuSans-48"/>
       <use x="254.492188" xlink:href="#DejaVuSans-48"/>
       <use x="318.115234" xlink:href="#DejaVuSans-48"/>
      </g>
     </g>
    </g>
    <g id="xtick_5">
     <g id="line2d_5">
      <path clip-path="url(#p3d90bd6c48)" d="M 278.159561 307.584 
L 278.159561 41.472 
" style="fill:none;stroke:#ffffff;stroke-linecap:round;"/>
     </g>
     <g id="text_5">
      <!-- 200000 -->
      <defs>
       <path d="M 19.1875 8.296875 
L 53.609375 8.296875 
L 53.609375 0 
L 7.328125 0 
L 7.328125 8.296875 
Q 12.9375 14.109375 22.625 23.890625 
Q 32.328125 33.6875 34.8125 36.53125 
Q 39.546875 41.84375 41.421875 45.53125 
Q 43.3125 49.21875 43.3125 52.78125 
Q 43.3125 58.59375 39.234375 62.25 
Q 35.15625 65.921875 28.609375 65.921875 
Q 23.96875 65.921875 18.8125 64.3125 
Q 13.671875 62.703125 7.8125 59.421875 
L 7.8125 69.390625 
Q 13.765625 71.78125 18.9375 73 
Q 24.125 74.21875 28.421875 74.21875 
Q 39.75 74.21875 46.484375 68.546875 
Q 53.21875 62.890625 53.21875 53.421875 
Q 53.21875 48.921875 51.53125 44.890625 
Q 49.859375 40.875 45.40625 35.40625 
Q 44.1875 33.984375 37.640625 27.21875 
Q 31.109375 20.453125 19.1875 8.296875 
z
" id="DejaVuSans-50"/>
      </defs>
      <g style="fill:#262626;" transform="translate(257.163311 325.442281)scale(0.11 -0.11)">
       <use xlink:href="#DejaVuSans-50"/>
       <use x="63.623047" xlink:href="#DejaVuSans-48"/>
       <use x="127.246094" xlink:href="#DejaVuSans-48"/>
       <use x="190.869141" xlink:href="#DejaVuSans-48"/>
       <use x="254.492188" xlink:href="#DejaVuSans-48"/>
       <use x="318.115234" xlink:href="#DejaVuSans-48"/>
      </g>
     </g>
    </g>
    <g id="xtick_6">
     <g id="line2d_6">
      <path clip-path="url(#p3d90bd6c48)" d="M 329.309299 307.584 
L 329.309299 41.472 
" style="fill:none;stroke:#ffffff;stroke-linecap:round;"/>
     </g>
     <g id="text_6">
      <!-- 250000 -->
      <g style="fill:#262626;" transform="translate(308.313049 325.442281)scale(0.11 -0.11)">
       <use xlink:href="#DejaVuSans-50"/>
       <use x="63.623047" xlink:href="#DejaVuSans-53"/>
       <use x="127.246094" xlink:href="#DejaVuSans-48"/>
       <use x="190.869141" xlink:href="#DejaVuSans-48"/>
       <use x="254.492188" xlink:href="#DejaVuSans-48"/>
       <use x="318.115234" xlink:href="#DejaVuSans-48"/>
      </g>
     </g>
    </g>
    <g id="xtick_7">
     <g id="line2d_7">
      <path clip-path="url(#p3d90bd6c48)" d="M 380.459036 307.584 
L 380.459036 41.472 
" style="fill:none;stroke:#ffffff;stroke-linecap:round;"/>
     </g>
     <g id="text_7">
      <!-- 300000 -->
      <defs>
       <path d="M 40.578125 39.3125 
Q 47.65625 37.796875 51.625 33 
Q 55.609375 28.21875 55.609375 21.1875 
Q 55.609375 10.40625 48.1875 4.484375 
Q 40.765625 -1.421875 27.09375 -1.421875 
Q 22.515625 -1.421875 17.65625 -0.515625 
Q 12.796875 0.390625 7.625 2.203125 
L 7.625 11.71875 
Q 11.71875 9.328125 16.59375 8.109375 
Q 21.484375 6.890625 26.8125 6.890625 
Q 36.078125 6.890625 40.9375 10.546875 
Q 45.796875 14.203125 45.796875 21.1875 
Q 45.796875 27.640625 41.28125 31.265625 
Q 36.765625 34.90625 28.71875 34.90625 
L 20.21875 34.90625 
L 20.21875 43.015625 
L 29.109375 43.015625 
Q 36.375 43.015625 40.234375 45.921875 
Q 44.09375 48.828125 44.09375 54.296875 
Q 44.09375 59.90625 40.109375 62.90625 
Q 36.140625 65.921875 28.71875 65.921875 
Q 24.65625 65.921875 20.015625 65.03125 
Q 15.375 64.15625 9.8125 62.3125 
L 9.8125 71.09375 
Q 15.4375 72.65625 20.34375 73.4375 
Q 25.25 74.21875 29.59375 74.21875 
Q 40.828125 74.21875 47.359375 69.109375 
Q 53.90625 64.015625 53.90625 55.328125 
Q 53.90625 49.265625 50.4375 45.09375 
Q 46.96875 40.921875 40.578125 39.3125 
z
" id="DejaVuSans-51"/>
      </defs>
      <g style="fill:#262626;" transform="translate(359.462786 325.442281)scale(0.11 -0.11)">
       <use xlink:href="#DejaVuSans-51"/>
       <use x="63.623047" xlink:href="#DejaVuSans-48"/>
       <use x="127.246094" xlink:href="#DejaVuSans-48"/>
       <use x="190.869141" xlink:href="#DejaVuSans-48"/>
       <use x="254.492188" xlink:href="#DejaVuSans-48"/>
       <use x="318.115234" xlink:href="#DejaVuSans-48"/>
      </g>
     </g>
    </g>
    <g id="text_8">
     <!-- label_count -->
     <defs>
      <path d="M 9.421875 75.984375 
L 18.40625 75.984375 
L 18.40625 0 
L 9.421875 0 
z
" id="DejaVuSans-108"/>
      <path d="M 34.28125 27.484375 
Q 23.390625 27.484375 19.1875 25 
Q 14.984375 22.515625 14.984375 16.5 
Q 14.984375 11.71875 18.140625 8.90625 
Q 21.296875 6.109375 26.703125 6.109375 
Q 34.1875 6.109375 38.703125 11.40625 
Q 43.21875 16.703125 43.21875 25.484375 
L 43.21875 27.484375 
z
M 52.203125 31.203125 
L 52.203125 0 
L 43.21875 0 
L 43.21875 8.296875 
Q 40.140625 3.328125 35.546875 0.953125 
Q 30.953125 -1.421875 24.3125 -1.421875 
Q 15.921875 -1.421875 10.953125 3.296875 
Q 6 8.015625 6 15.921875 
Q 6 25.140625 12.171875 29.828125 
Q 18.359375 34.515625 30.609375 34.515625 
L 43.21875 34.515625 
L 43.21875 35.40625 
Q 43.21875 41.609375 39.140625 45 
Q 35.0625 48.390625 27.6875 48.390625 
Q 23 48.390625 18.546875 47.265625 
Q 14.109375 46.140625 10.015625 43.890625 
L 10.015625 52.203125 
Q 14.9375 54.109375 19.578125 55.046875 
Q 24.21875 56 28.609375 56 
Q 40.484375 56 46.34375 49.84375 
Q 52.203125 43.703125 52.203125 31.203125 
z
" id="DejaVuSans-97"/>
      <path d="M 48.6875 27.296875 
Q 48.6875 37.203125 44.609375 42.84375 
Q 40.53125 48.484375 33.40625 48.484375 
Q 26.265625 48.484375 22.1875 42.84375 
Q 18.109375 37.203125 18.109375 27.296875 
Q 18.109375 17.390625 22.1875 11.75 
Q 26.265625 6.109375 33.40625 6.109375 
Q 40.53125 6.109375 44.609375 11.75 
Q 48.6875 17.390625 48.6875 27.296875 
z
M 18.109375 46.390625 
Q 20.953125 51.265625 25.265625 53.625 
Q 29.59375 56 35.59375 56 
Q 45.5625 56 51.78125 48.09375 
Q 58.015625 40.1875 58.015625 27.296875 
Q 58.015625 14.40625 51.78125 6.484375 
Q 45.5625 -1.421875 35.59375 -1.421875 
Q 29.59375 -1.421875 25.265625 0.953125 
Q 20.953125 3.328125 18.109375 8.203125 
L 18.109375 0 
L 9.078125 0 
L 9.078125 75.984375 
L 18.109375 75.984375 
z
" id="DejaVuSans-98"/>
      <path d="M 56.203125 29.59375 
L 56.203125 25.203125 
L 14.890625 25.203125 
Q 15.484375 15.921875 20.484375 11.0625 
Q 25.484375 6.203125 34.421875 6.203125 
Q 39.59375 6.203125 44.453125 7.46875 
Q 49.3125 8.734375 54.109375 11.28125 
L 54.109375 2.78125 
Q 49.265625 0.734375 44.1875 -0.34375 
Q 39.109375 -1.421875 33.890625 -1.421875 
Q 20.796875 -1.421875 13.15625 6.1875 
Q 5.515625 13.8125 5.515625 26.8125 
Q 5.515625 40.234375 12.765625 48.109375 
Q 20.015625 56 32.328125 56 
Q 43.359375 56 49.78125 48.890625 
Q 56.203125 41.796875 56.203125 29.59375 
z
M 47.21875 32.234375 
Q 47.125 39.59375 43.09375 43.984375 
Q 39.0625 48.390625 32.421875 48.390625 
Q 24.90625 48.390625 20.390625 44.140625 
Q 15.875 39.890625 15.1875 32.171875 
z
" id="DejaVuSans-101"/>
      <path d="M 50.984375 -16.609375 
L 50.984375 -23.578125 
L -0.984375 -23.578125 
L -0.984375 -16.609375 
z
" id="DejaVuSans-95"/>
      <path d="M 48.78125 52.59375 
L 48.78125 44.1875 
Q 44.96875 46.296875 41.140625 47.34375 
Q 37.3125 48.390625 33.40625 48.390625 
Q 24.65625 48.390625 19.8125 42.84375 
Q 14.984375 37.3125 14.984375 27.296875 
Q 14.984375 17.28125 19.8125 11.734375 
Q 24.65625 6.203125 33.40625 6.203125 
Q 37.3125 6.203125 41.140625 7.25 
Q 44.96875 8.296875 48.78125 10.40625 
L 48.78125 2.09375 
Q 45.015625 0.34375 40.984375 -0.53125 
Q 36.96875 -1.421875 32.421875 -1.421875 
Q 20.0625 -1.421875 12.78125 6.34375 
Q 5.515625 14.109375 5.515625 27.296875 
Q 5.515625 40.671875 12.859375 48.328125 
Q 20.21875 56 33.015625 56 
Q 37.15625 56 41.109375 55.140625 
Q 45.0625 54.296875 48.78125 52.59375 
z
" id="DejaVuSans-99"/>
      <path d="M 30.609375 48.390625 
Q 23.390625 48.390625 19.1875 42.75 
Q 14.984375 37.109375 14.984375 27.296875 
Q 14.984375 17.484375 19.15625 11.84375 
Q 23.34375 6.203125 30.609375 6.203125 
Q 37.796875 6.203125 41.984375 11.859375 
Q 46.1875 17.53125 46.1875 27.296875 
Q 46.1875 37.015625 41.984375 42.703125 
Q 37.796875 48.390625 30.609375 48.390625 
z
M 30.609375 56 
Q 42.328125 56 49.015625 48.375 
Q 55.71875 40.765625 55.71875 27.296875 
Q 55.71875 13.875 49.015625 6.21875 
Q 42.328125 -1.421875 30.609375 -1.421875 
Q 18.84375 -1.421875 12.171875 6.21875 
Q 5.515625 13.875 5.515625 27.296875 
Q 5.515625 40.765625 12.171875 48.375 
Q 18.84375 56 30.609375 56 
z
" id="DejaVuSans-111"/>
      <path d="M 8.5 21.578125 
L 8.5 54.6875 
L 17.484375 54.6875 
L 17.484375 21.921875 
Q 17.484375 14.15625 20.5 10.265625 
Q 23.53125 6.390625 29.59375 6.390625 
Q 36.859375 6.390625 41.078125 11.03125 
Q 45.3125 15.671875 45.3125 23.6875 
L 45.3125 54.6875 
L 54.296875 54.6875 
L 54.296875 0 
L 45.3125 0 
L 45.3125 8.40625 
Q 42.046875 3.421875 37.71875 1 
Q 33.40625 -1.421875 27.6875 -1.421875 
Q 18.265625 -1.421875 13.375 4.4375 
Q 8.5 10.296875 8.5 21.578125 
z
M 31.109375 56 
z
" id="DejaVuSans-117"/>
      <path d="M 54.890625 33.015625 
L 54.890625 0 
L 45.90625 0 
L 45.90625 32.71875 
Q 45.90625 40.484375 42.875 44.328125 
Q 39.84375 48.1875 33.796875 48.1875 
Q 26.515625 48.1875 22.3125 43.546875 
Q 18.109375 38.921875 18.109375 30.90625 
L 18.109375 0 
L 9.078125 0 
L 9.078125 54.6875 
L 18.109375 54.6875 
L 18.109375 46.1875 
Q 21.34375 51.125 25.703125 53.5625 
Q 30.078125 56 35.796875 56 
Q 45.21875 56 50.046875 50.171875 
Q 54.890625 44.34375 54.890625 33.015625 
z
" id="DejaVuSans-110"/>
      <path d="M 18.3125 70.21875 
L 18.3125 54.6875 
L 36.8125 54.6875 
L 36.8125 47.703125 
L 18.3125 47.703125 
L 18.3125 18.015625 
Q 18.3125 11.328125 20.140625 9.421875 
Q 21.96875 7.515625 27.59375 7.515625 
L 36.8125 7.515625 
L 36.8125 0 
L 27.59375 0 
Q 17.1875 0 13.234375 3.875 
Q 9.28125 7.765625 9.28125 18.015625 
L 9.28125 47.703125 
L 2.6875 47.703125 
L 2.6875 54.6875 
L 9.28125 54.6875 
L 9.28125 70.21875 
z
" id="DejaVuSans-116"/>
     </defs>
     <g style="fill:#262626;" transform="translate(201.720937 340.848062)scale(0.12 -0.12)">
      <use xlink:href="#DejaVuSans-108"/>
      <use x="27.783203" xlink:href="#DejaVuSans-97"/>
      <use x="89.0625" xlink:href="#DejaVuSans-98"/>
      <use x="152.539062" xlink:href="#DejaVuSans-101"/>
      <use x="214.0625" xlink:href="#DejaVuSans-108"/>
      <use x="241.845703" xlink:href="#DejaVuSans-95"/>
      <use x="291.845703" xlink:href="#DejaVuSans-99"/>
      <use x="346.826172" xlink:href="#DejaVuSans-111"/>
      <use x="408.007812" xlink:href="#DejaVuSans-117"/>
      <use x="471.386719" xlink:href="#DejaVuSans-110"/>
      <use x="534.765625" xlink:href="#DejaVuSans-116"/>
     </g>
    </g>
   </g>
   <g id="matplotlib.axis_2">
    <g id="ytick_1">
     <g id="line2d_8">
      <path clip-path="url(#p3d90bd6c48)" d="M 57.6 295.534318 
L 414.72 295.534318 
" style="fill:none;stroke:#ffffff;stroke-linecap:round;"/>
     </g>
     <g id="text_9">
      <!-- 0 -->
      <g style="fill:#262626;" transform="translate(41.10125 299.713458)scale(0.11 -0.11)">
       <use xlink:href="#DejaVuSans-48"/>
      </g>
     </g>
    </g>
    <g id="ytick_2">
     <g id="line2d_9">
      <path clip-path="url(#p3d90bd6c48)" d="M 57.6 258.199288 
L 414.72 258.199288 
" style="fill:none;stroke:#ffffff;stroke-linecap:round;"/>
     </g>
     <g id="text_10">
      <!-- 5 -->
      <g style="fill:#262626;" transform="translate(41.10125 262.378429)scale(0.11 -0.11)">
       <use xlink:href="#DejaVuSans-53"/>
      </g>
     </g>
    </g>
    <g id="ytick_3">
     <g id="line2d_10">
      <path clip-path="url(#p3d90bd6c48)" d="M 57.6 220.864259 
L 414.72 220.864259 
" style="fill:none;stroke:#ffffff;stroke-linecap:round;"/>
     </g>
     <g id="text_11">
      <!-- 10 -->
      <g style="fill:#262626;" transform="translate(34.1025 225.043399)scale(0.11 -0.11)">
       <use xlink:href="#DejaVuSans-49"/>
       <use x="63.623047" xlink:href="#DejaVuSans-48"/>
      </g>
     </g>
    </g>
    <g id="ytick_4">
     <g id="line2d_11">
      <path clip-path="url(#p3d90bd6c48)" d="M 57.6 183.529229 
L 414.72 183.529229 
" style="fill:none;stroke:#ffffff;stroke-linecap:round;"/>
     </g>
     <g id="text_12">
      <!-- 15 -->
      <g style="fill:#262626;" transform="translate(34.1025 187.70837)scale(0.11 -0.11)">
       <use xlink:href="#DejaVuSans-49"/>
       <use x="63.623047" xlink:href="#DejaVuSans-53"/>
      </g>
     </g>
    </g>
    <g id="ytick_5">
     <g id="line2d_12">
      <path clip-path="url(#p3d90bd6c48)" d="M 57.6 146.1942 
L 414.72 146.1942 
" style="fill:none;stroke:#ffffff;stroke-linecap:round;"/>
     </g>
     <g id="text_13">
      <!-- 20 -->
      <g style="fill:#262626;" transform="translate(34.1025 150.37334)scale(0.11 -0.11)">
       <use xlink:href="#DejaVuSans-50"/>
       <use x="63.623047" xlink:href="#DejaVuSans-48"/>
      </g>
     </g>
    </g>
    <g id="ytick_6">
     <g id="line2d_13">
      <path clip-path="url(#p3d90bd6c48)" d="M 57.6 108.85917 
L 414.72 108.85917 
" style="fill:none;stroke:#ffffff;stroke-linecap:round;"/>
     </g>
     <g id="text_14">
      <!-- 25 -->
      <g style="fill:#262626;" transform="translate(34.1025 113.038311)scale(0.11 -0.11)">
       <use xlink:href="#DejaVuSans-50"/>
       <use x="63.623047" xlink:href="#DejaVuSans-53"/>
      </g>
     </g>
    </g>
    <g id="ytick_7">
     <g id="line2d_14">
      <path clip-path="url(#p3d90bd6c48)" d="M 57.6 71.524141 
L 414.72 71.524141 
" style="fill:none;stroke:#ffffff;stroke-linecap:round;"/>
     </g>
     <g id="text_15">
      <!-- 30 -->
      <g style="fill:#262626;" transform="translate(34.1025 75.703281)scale(0.11 -0.11)">
       <use xlink:href="#DejaVuSans-51"/>
       <use x="63.623047" xlink:href="#DejaVuSans-48"/>
      </g>
     </g>
    </g>
    <g id="text_16">
     <!-- Time (seconds) -->
     <defs>
      <path d="M -0.296875 72.90625 
L 61.375 72.90625 
L 61.375 64.59375 
L 35.5 64.59375 
L 35.5 0 
L 25.59375 0 
L 25.59375 64.59375 
L -0.296875 64.59375 
z
" id="DejaVuSans-84"/>
      <path d="M 9.421875 54.6875 
L 18.40625 54.6875 
L 18.40625 0 
L 9.421875 0 
z
M 9.421875 75.984375 
L 18.40625 75.984375 
L 18.40625 64.59375 
L 9.421875 64.59375 
z
" id="DejaVuSans-105"/>
      <path d="M 52 44.1875 
Q 55.375 50.25 60.0625 53.125 
Q 64.75 56 71.09375 56 
Q 79.640625 56 84.28125 50.015625 
Q 88.921875 44.046875 88.921875 33.015625 
L 88.921875 0 
L 79.890625 0 
L 79.890625 32.71875 
Q 79.890625 40.578125 77.09375 44.375 
Q 74.3125 48.1875 68.609375 48.1875 
Q 61.625 48.1875 57.5625 43.546875 
Q 53.515625 38.921875 53.515625 30.90625 
L 53.515625 0 
L 44.484375 0 
L 44.484375 32.71875 
Q 44.484375 40.625 41.703125 44.40625 
Q 38.921875 48.1875 33.109375 48.1875 
Q 26.21875 48.1875 22.15625 43.53125 
Q 18.109375 38.875 18.109375 30.90625 
L 18.109375 0 
L 9.078125 0 
L 9.078125 54.6875 
L 18.109375 54.6875 
L 18.109375 46.1875 
Q 21.1875 51.21875 25.484375 53.609375 
Q 29.78125 56 35.6875 56 
Q 41.65625 56 45.828125 52.96875 
Q 50 49.953125 52 44.1875 
z
" id="DejaVuSans-109"/>
      <path id="DejaVuSans-32"/>
      <path d="M 31 75.875 
Q 24.46875 64.65625 21.28125 53.65625 
Q 18.109375 42.671875 18.109375 31.390625 
Q 18.109375 20.125 21.3125 9.0625 
Q 24.515625 -2 31 -13.1875 
L 23.1875 -13.1875 
Q 15.875 -1.703125 12.234375 9.375 
Q 8.59375 20.453125 8.59375 31.390625 
Q 8.59375 42.28125 12.203125 53.3125 
Q 15.828125 64.359375 23.1875 75.875 
z
" id="DejaVuSans-40"/>
      <path d="M 44.28125 53.078125 
L 44.28125 44.578125 
Q 40.484375 46.53125 36.375 47.5 
Q 32.28125 48.484375 27.875 48.484375 
Q 21.1875 48.484375 17.84375 46.4375 
Q 14.5 44.390625 14.5 40.28125 
Q 14.5 37.15625 16.890625 35.375 
Q 19.28125 33.59375 26.515625 31.984375 
L 29.59375 31.296875 
Q 39.15625 29.25 43.1875 25.515625 
Q 47.21875 21.78125 47.21875 15.09375 
Q 47.21875 7.46875 41.1875 3.015625 
Q 35.15625 -1.421875 24.609375 -1.421875 
Q 20.21875 -1.421875 15.453125 -0.5625 
Q 10.6875 0.296875 5.421875 2 
L 5.421875 11.28125 
Q 10.40625 8.6875 15.234375 7.390625 
Q 20.0625 6.109375 24.8125 6.109375 
Q 31.15625 6.109375 34.5625 8.28125 
Q 37.984375 10.453125 37.984375 14.40625 
Q 37.984375 18.0625 35.515625 20.015625 
Q 33.0625 21.96875 24.703125 23.78125 
L 21.578125 24.515625 
Q 13.234375 26.265625 9.515625 29.90625 
Q 5.8125 33.546875 5.8125 39.890625 
Q 5.8125 47.609375 11.28125 51.796875 
Q 16.75 56 26.8125 56 
Q 31.78125 56 36.171875 55.265625 
Q 40.578125 54.546875 44.28125 53.078125 
z
" id="DejaVuSans-115"/>
      <path d="M 45.40625 46.390625 
L 45.40625 75.984375 
L 54.390625 75.984375 
L 54.390625 0 
L 45.40625 0 
L 45.40625 8.203125 
Q 42.578125 3.328125 38.25 0.953125 
Q 33.9375 -1.421875 27.875 -1.421875 
Q 17.96875 -1.421875 11.734375 6.484375 
Q 5.515625 14.40625 5.515625 27.296875 
Q 5.515625 40.1875 11.734375 48.09375 
Q 17.96875 56 27.875 56 
Q 33.9375 56 38.25 53.625 
Q 42.578125 51.265625 45.40625 46.390625 
z
M 14.796875 27.296875 
Q 14.796875 17.390625 18.875 11.75 
Q 22.953125 6.109375 30.078125 6.109375 
Q 37.203125 6.109375 41.296875 11.75 
Q 45.40625 17.390625 45.40625 27.296875 
Q 45.40625 37.203125 41.296875 42.84375 
Q 37.203125 48.484375 30.078125 48.484375 
Q 22.953125 48.484375 18.875 42.84375 
Q 14.796875 37.203125 14.796875 27.296875 
z
" id="DejaVuSans-100"/>
      <path d="M 8.015625 75.875 
L 15.828125 75.875 
Q 23.140625 64.359375 26.78125 53.3125 
Q 30.421875 42.28125 30.421875 31.390625 
Q 30.421875 20.453125 26.78125 9.375 
Q 23.140625 -1.703125 15.828125 -13.1875 
L 8.015625 -13.1875 
Q 14.5 -2 17.703125 9.0625 
Q 20.90625 20.125 20.90625 31.390625 
Q 20.90625 42.671875 17.703125 53.65625 
Q 14.5 64.65625 8.015625 75.875 
z
" id="DejaVuSans-41"/>
     </defs>
     <g style="fill:#262626;" transform="translate(27.606875 220.50675)rotate(-90)scale(0.12 -0.12)">
      <use xlink:href="#DejaVuSans-84"/>
      <use x="61.037109" xlink:href="#DejaVuSans-105"/>
      <use x="88.820312" xlink:href="#DejaVuSans-109"/>
      <use x="186.232422" xlink:href="#DejaVuSans-101"/>
      <use x="247.755859" xlink:href="#DejaVuSans-32"/>
      <use x="279.542969" xlink:href="#DejaVuSans-40"/>
      <use x="318.556641" xlink:href="#DejaVuSans-115"/>
      <use x="370.65625" xlink:href="#DejaVuSans-101"/>
      <use x="432.179688" xlink:href="#DejaVuSans-99"/>
      <use x="487.160156" xlink:href="#DejaVuSans-111"/>
      <use x="548.341797" xlink:href="#DejaVuSans-110"/>
      <use x="611.720703" xlink:href="#DejaVuSans-100"/>
      <use x="675.197266" xlink:href="#DejaVuSans-115"/>
      <use x="727.296875" xlink:href="#DejaVuSans-41"/>
     </g>
    </g>
   </g>
   <g id="line2d_15">
    <path clip-path="url(#p3d90bd6c48)" d="M 73.832727 295.442481 
L 74.134511 295.465644 
L 74.801503 295.423888 
L 76.238811 295.424336 
L 78.440296 295.433916 
L 83.275992 295.404355 
L 94.026644 294.908112 
L 113.275313 295.255813 
L 154.753658 295.180598 
L 235.936476 290.929079 
L 398.487273 287.268753 
" style="fill:none;stroke:#4c72b0;stroke-linecap:round;stroke-width:1.5;"/>
   </g>
   <g id="line2d_16">
    <path clip-path="url(#p3d90bd6c48)" d="M 73.832727 295.450874 
L 74.134511 295.462037 
L 74.801503 295.444213 
L 76.238811 295.450867 
L 78.440296 295.438359 
L 83.275992 295.455078 
L 94.026644 295.08063 
L 113.275313 295.447999 
L 154.753658 295.463829 
L 235.936476 295.457303 
L 398.487273 295.480936 
" style="fill:none;stroke:#dd8452;stroke-linecap:round;stroke-width:1.5;"/>
   </g>
   <g id="line2d_17">
    <path clip-path="url(#p3d90bd6c48)" d="M 73.832727 295.48287 
L 74.134511 295.487395 
L 74.801503 295.477248 
L 76.238811 295.47155 
L 78.440296 295.480526 
L 83.275992 295.470243 
L 94.026644 295.02459 
L 113.275313 295.468758 
L 154.753658 295.488 
L 235.936476 295.483893 
L 398.487273 295.478913 
" style="fill:none;stroke:#55a868;stroke-linecap:round;stroke-width:1.5;"/>
   </g>
   <g id="line2d_18">
    <path clip-path="url(#p3d90bd6c48)" d="M 73.832727 295.455698 
L 74.134511 295.432259 
L 74.801503 295.454996 
L 76.238811 295.443355 
L 78.440296 295.418953 
L 83.275992 295.377847 
L 94.026644 294.882097 
L 113.275313 295.118167 
L 154.753658 295.003697 
L 235.936476 290.769091 
L 398.487273 286.616099 
" style="fill:none;stroke:#c44e52;stroke-linecap:round;stroke-width:1.5;"/>
   </g>
   <g id="line2d_19">
    <path clip-path="url(#p3d90bd6c48)" d="M 73.832727 295.451501 
L 74.134511 295.464135 
L 74.801503 295.447081 
L 76.238811 295.457087 
L 78.440296 295.452099 
L 83.275992 295.445065 
L 94.026644 289.937946 
L 113.275313 295.445132 
L 154.753658 295.417011 
L 235.936476 293.799478 
L 398.487273 292.489407 
" style="fill:none;stroke:#8172b3;stroke-linecap:round;stroke-width:1.5;"/>
   </g>
   <g id="line2d_20">
    <path clip-path="url(#p3d90bd6c48)" d="M 73.832727 295.453465 
L 74.134511 295.451666 
L 74.801503 295.435104 
L 76.238811 295.38948 
L 78.440296 295.421357 
L 83.275992 295.388584 
L 94.026644 294.888698 
L 113.275313 295.281634 
L 154.753658 294.996947 
L 235.936476 290.812071 
L 398.487273 286.582767 
" style="fill:none;stroke:#937860;stroke-linecap:round;stroke-width:1.5;"/>
   </g>
   <g id="line2d_21">
    <path clip-path="url(#p3d90bd6c48)" d="M 73.832727 295.436829 
L 74.134511 295.460738 
L 74.801503 295.453159 
L 76.238811 295.445759 
L 78.440296 295.448492 
L 83.275992 295.440017 
L 94.026644 283.191857 
L 113.275313 295.223937 
L 154.753658 295.154538 
L 235.936476 293.59256 
L 398.487273 291.434849 
" style="fill:none;stroke:#da8bc3;stroke-linecap:round;stroke-width:1.5;"/>
   </g>
   <g id="line2d_22">
    <path clip-path="url(#p3d90bd6c48)" d="M 73.832727 295.224176 
L 74.134511 295.45578 
L 74.801503 295.301078 
L 76.238811 295.279626 
L 78.440296 295.172385 
L 83.275992 295.122789 
L 94.026644 290.234902 
L 113.275313 295.263049 
L 154.753658 295.330521 
L 235.936476 177.055806 
L 398.487273 53.568 
" style="fill:none;stroke:#8c8c8c;stroke-linecap:round;stroke-width:1.5;"/>
   </g>
   <g id="line2d_23"/>
   <g id="line2d_24"/>
   <g id="line2d_25"/>
   <g id="line2d_26"/>
   <g id="line2d_27"/>
   <g id="line2d_28"/>
   <g id="line2d_29"/>
   <g id="line2d_30"/>
   <g id="line2d_31"/>
   <g id="patch_3">
    <path d="M 57.6 307.584 
L 57.6 41.472 
" style="fill:none;stroke:#ffffff;stroke-linecap:square;stroke-linejoin:miter;stroke-width:1.25;"/>
   </g>
   <g id="patch_4">
    <path d="M 414.72 307.584 
L 414.72 41.472 
" style="fill:none;stroke:#ffffff;stroke-linecap:square;stroke-linejoin:miter;stroke-width:1.25;"/>
   </g>
   <g id="patch_5">
    <path d="M 57.6 307.584 
L 414.72 307.584 
" style="fill:none;stroke:#ffffff;stroke-linecap:square;stroke-linejoin:miter;stroke-width:1.25;"/>
   </g>
   <g id="patch_6">
    <path d="M 57.6 41.472 
L 414.72 41.472 
" style="fill:none;stroke:#ffffff;stroke-linecap:square;stroke-linejoin:miter;stroke-width:1.25;"/>
   </g>
   <g id="text_17">
    <!-- data/postgres-smallpage0.csv -->
    <defs>
     <path d="M 25.390625 72.90625 
L 33.6875 72.90625 
L 8.296875 -9.28125 
L 0 -9.28125 
z
" id="DejaVuSans-47"/>
     <path d="M 18.109375 8.203125 
L 18.109375 -20.796875 
L 9.078125 -20.796875 
L 9.078125 54.6875 
L 18.109375 54.6875 
L 18.109375 46.390625 
Q 20.953125 51.265625 25.265625 53.625 
Q 29.59375 56 35.59375 56 
Q 45.5625 56 51.78125 48.09375 
Q 58.015625 40.1875 58.015625 27.296875 
Q 58.015625 14.40625 51.78125 6.484375 
Q 45.5625 -1.421875 35.59375 -1.421875 
Q 29.59375 -1.421875 25.265625 0.953125 
Q 20.953125 3.328125 18.109375 8.203125 
z
M 48.6875 27.296875 
Q 48.6875 37.203125 44.609375 42.84375 
Q 40.53125 48.484375 33.40625 48.484375 
Q 26.265625 48.484375 22.1875 42.84375 
Q 18.109375 37.203125 18.109375 27.296875 
Q 18.109375 17.390625 22.1875 11.75 
Q 26.265625 6.109375 33.40625 6.109375 
Q 40.53125 6.109375 44.609375 11.75 
Q 48.6875 17.390625 48.6875 27.296875 
z
" id="DejaVuSans-112"/>
     <path d="M 45.40625 27.984375 
Q 45.40625 37.75 41.375 43.109375 
Q 37.359375 48.484375 30.078125 48.484375 
Q 22.859375 48.484375 18.828125 43.109375 
Q 14.796875 37.75 14.796875 27.984375 
Q 14.796875 18.265625 18.828125 12.890625 
Q 22.859375 7.515625 30.078125 7.515625 
Q 37.359375 7.515625 41.375 12.890625 
Q 45.40625 18.265625 45.40625 27.984375 
z
M 54.390625 6.78125 
Q 54.390625 -7.171875 48.1875 -13.984375 
Q 42 -20.796875 29.203125 -20.796875 
Q 24.46875 -20.796875 20.265625 -20.09375 
Q 16.0625 -19.390625 12.109375 -17.921875 
L 12.109375 -9.1875 
Q 16.0625 -11.328125 19.921875 -12.34375 
Q 23.78125 -13.375 27.78125 -13.375 
Q 36.625 -13.375 41.015625 -8.765625 
Q 45.40625 -4.15625 45.40625 5.171875 
L 45.40625 9.625 
Q 42.625 4.78125 38.28125 2.390625 
Q 33.9375 0 27.875 0 
Q 17.828125 0 11.671875 7.65625 
Q 5.515625 15.328125 5.515625 27.984375 
Q 5.515625 40.671875 11.671875 48.328125 
Q 17.828125 56 27.875 56 
Q 33.9375 56 38.28125 53.609375 
Q 42.625 51.21875 45.40625 46.390625 
L 45.40625 54.6875 
L 54.390625 54.6875 
z
" id="DejaVuSans-103"/>
     <path d="M 41.109375 46.296875 
Q 39.59375 47.171875 37.8125 47.578125 
Q 36.03125 48 33.890625 48 
Q 26.265625 48 22.1875 43.046875 
Q 18.109375 38.09375 18.109375 28.8125 
L 18.109375 0 
L 9.078125 0 
L 9.078125 54.6875 
L 18.109375 54.6875 
L 18.109375 46.1875 
Q 20.953125 51.171875 25.484375 53.578125 
Q 30.03125 56 36.53125 56 
Q 37.453125 56 38.578125 55.875 
Q 39.703125 55.765625 41.0625 55.515625 
z
" id="DejaVuSans-114"/>
     <path d="M 4.890625 31.390625 
L 31.203125 31.390625 
L 31.203125 23.390625 
L 4.890625 23.390625 
z
" id="DejaVuSans-45"/>
     <path d="M 10.6875 12.40625 
L 21 12.40625 
L 21 0 
L 10.6875 0 
z
" id="DejaVuSans-46"/>
     <path d="M 2.984375 54.6875 
L 12.5 54.6875 
L 29.59375 8.796875 
L 46.6875 54.6875 
L 56.203125 54.6875 
L 35.6875 0 
L 23.484375 0 
z
" id="DejaVuSans-118"/>
    </defs>
    <g style="fill:#262626;" transform="translate(145.741875 35.472)scale(0.12 -0.12)">
     <use xlink:href="#DejaVuSans-100"/>
     <use x="63.476562" xlink:href="#DejaVuSans-97"/>
     <use x="124.755859" xlink:href="#DejaVuSans-116"/>
     <use x="163.964844" xlink:href="#DejaVuSans-97"/>
     <use x="225.244141" xlink:href="#DejaVuSans-47"/>
     <use x="258.935547" xlink:href="#DejaVuSans-112"/>
     <use x="322.412109" xlink:href="#DejaVuSans-111"/>
     <use x="383.59375" xlink:href="#DejaVuSans-115"/>
     <use x="435.693359" xlink:href="#DejaVuSans-116"/>
     <use x="474.902344" xlink:href="#DejaVuSans-103"/>
     <use x="538.378906" xlink:href="#DejaVuSans-114"/>
     <use x="579.460938" xlink:href="#DejaVuSans-101"/>
     <use x="640.984375" xlink:href="#DejaVuSans-115"/>
     <use x="693.083984" xlink:href="#DejaVuSans-45"/>
     <use x="729.167969" xlink:href="#DejaVuSans-115"/>
     <use x="781.267578" xlink:href="#DejaVuSans-109"/>
     <use x="878.679688" xlink:href="#DejaVuSans-97"/>
     <use x="939.958984" xlink:href="#DejaVuSans-108"/>
     <use x="967.742188" xlink:href="#DejaVuSans-108"/>
     <use x="995.525391" xlink:href="#DejaVuSans-112"/>
     <use x="1059.001953" xlink:href="#DejaVuSans-97"/>
     <use x="1120.28125" xlink:href="#DejaVuSans-103"/>
     <use x="1183.757812" xlink:href="#DejaVuSans-101"/>
     <use x="1245.28125" xlink:href="#DejaVuSans-48"/>
     <use x="1308.904297" xlink:href="#DejaVuSans-46"/>
     <use x="1340.691406" xlink:href="#DejaVuSans-99"/>
     <use x="1395.671875" xlink:href="#DejaVuSans-115"/>
     <use x="1447.771484" xlink:href="#DejaVuSans-118"/>
    </g>
   </g>
   <g id="legend_1">
    <g id="patch_7">
     <path d="M 65.3 195.585438 
L 244.335313 195.585438 
Q 246.535313 195.585438 246.535313 193.385438 
L 246.535313 49.172 
Q 246.535313 46.972 244.335313 46.972 
L 65.3 46.972 
Q 63.1 46.972 63.1 49.172 
L 63.1 193.385438 
Q 63.1 195.585438 65.3 195.585438 
z
" style="fill:#eaeaf2;opacity:0.8;stroke:#cccccc;stroke-linejoin:miter;"/>
    </g>
    <g id="line2d_32">
     <path d="M 67.5 55.880281 
L 89.5 55.880281 
" style="fill:none;"/>
    </g>
    <g id="line2d_33"/>
    <g id="text_18">
     <!-- hue -->
     <defs>
      <path d="M 54.890625 33.015625 
L 54.890625 0 
L 45.90625 0 
L 45.90625 32.71875 
Q 45.90625 40.484375 42.875 44.328125 
Q 39.84375 48.1875 33.796875 48.1875 
Q 26.515625 48.1875 22.3125 43.546875 
Q 18.109375 38.921875 18.109375 30.90625 
L 18.109375 0 
L 9.078125 0 
L 9.078125 75.984375 
L 18.109375 75.984375 
L 18.109375 46.1875 
Q 21.34375 51.125 25.703125 53.5625 
Q 30.078125 56 35.796875 56 
Q 45.21875 56 50.046875 50.171875 
Q 54.890625 44.34375 54.890625 33.015625 
z
" id="DejaVuSans-104"/>
     </defs>
     <g style="fill:#262626;" transform="translate(98.3 59.730281)scale(0.11 -0.11)">
      <use xlink:href="#DejaVuSans-104"/>
      <use x="63.378906" xlink:href="#DejaVuSans-117"/>
      <use x="126.757812" xlink:href="#DejaVuSans-101"/>
     </g>
    </g>
    <g id="line2d_34">
     <path d="M 67.5 72.026219 
L 89.5 72.026219 
" style="fill:none;stroke:#4c72b0;stroke-linecap:round;stroke-width:1.5;"/>
    </g>
    <g id="line2d_35"/>
    <g id="text_19">
     <!-- inequality +cardinality -->
     <defs>
      <path d="M 14.796875 27.296875 
Q 14.796875 17.390625 18.875 11.75 
Q 22.953125 6.109375 30.078125 6.109375 
Q 37.203125 6.109375 41.296875 11.75 
Q 45.40625 17.390625 45.40625 27.296875 
Q 45.40625 37.203125 41.296875 42.84375 
Q 37.203125 48.484375 30.078125 48.484375 
Q 22.953125 48.484375 18.875 42.84375 
Q 14.796875 37.203125 14.796875 27.296875 
z
M 45.40625 8.203125 
Q 42.578125 3.328125 38.25 0.953125 
Q 33.9375 -1.421875 27.875 -1.421875 
Q 17.96875 -1.421875 11.734375 6.484375 
Q 5.515625 14.40625 5.515625 27.296875 
Q 5.515625 40.1875 11.734375 48.09375 
Q 17.96875 56 27.875 56 
Q 33.9375 56 38.25 53.625 
Q 42.578125 51.265625 45.40625 46.390625 
L 45.40625 54.6875 
L 54.390625 54.6875 
L 54.390625 -20.796875 
L 45.40625 -20.796875 
z
" id="DejaVuSans-113"/>
      <path d="M 32.171875 -5.078125 
Q 28.375 -14.84375 24.75 -17.8125 
Q 21.140625 -20.796875 15.09375 -20.796875 
L 7.90625 -20.796875 
L 7.90625 -13.28125 
L 13.1875 -13.28125 
Q 16.890625 -13.28125 18.9375 -11.515625 
Q 21 -9.765625 23.484375 -3.21875 
L 25.09375 0.875 
L 2.984375 54.6875 
L 12.5 54.6875 
L 29.59375 11.921875 
L 46.6875 54.6875 
L 56.203125 54.6875 
z
" id="DejaVuSans-121"/>
      <path d="M 46 62.703125 
L 46 35.5 
L 73.1875 35.5 
L 73.1875 27.203125 
L 46 27.203125 
L 46 0 
L 37.796875 0 
L 37.796875 27.203125 
L 10.59375 27.203125 
L 10.59375 35.5 
L 37.796875 35.5 
L 37.796875 62.703125 
z
" id="DejaVuSans-43"/>
     </defs>
     <g style="fill:#262626;" transform="translate(98.3 75.876219)scale(0.11 -0.11)">
      <use xlink:href="#DejaVuSans-105"/>
      <use x="27.783203" xlink:href="#DejaVuSans-110"/>
      <use x="91.162109" xlink:href="#DejaVuSans-101"/>
      <use x="152.685547" xlink:href="#DejaVuSans-113"/>
      <use x="216.162109" xlink:href="#DejaVuSans-117"/>
      <use x="279.541016" xlink:href="#DejaVuSans-97"/>
      <use x="340.820312" xlink:href="#DejaVuSans-108"/>
      <use x="368.603516" xlink:href="#DejaVuSans-105"/>
      <use x="396.386719" xlink:href="#DejaVuSans-116"/>
      <use x="435.595703" xlink:href="#DejaVuSans-121"/>
      <use x="494.775391" xlink:href="#DejaVuSans-32"/>
      <use x="526.5625" xlink:href="#DejaVuSans-43"/>
      <use x="610.351562" xlink:href="#DejaVuSans-99"/>
      <use x="665.332031" xlink:href="#DejaVuSans-97"/>
      <use x="726.611328" xlink:href="#DejaVuSans-114"/>
      <use x="767.708984" xlink:href="#DejaVuSans-100"/>
      <use x="831.185547" xlink:href="#DejaVuSans-105"/>
      <use x="858.96875" xlink:href="#DejaVuSans-110"/>
      <use x="922.347656" xlink:href="#DejaVuSans-97"/>
      <use x="983.626953" xlink:href="#DejaVuSans-108"/>
      <use x="1011.410156" xlink:href="#DejaVuSans-105"/>
      <use x="1039.193359" xlink:href="#DejaVuSans-116"/>
      <use x="1078.402344" xlink:href="#DejaVuSans-121"/>
     </g>
    </g>
    <g id="line2d_36">
     <path d="M 67.5 88.172156 
L 89.5 88.172156 
" style="fill:none;stroke:#dd8452;stroke-linecap:round;stroke-width:1.5;"/>
    </g>
    <g id="line2d_37"/>
    <g id="text_20">
     <!-- equality +cardinality -->
     <g style="fill:#262626;" transform="translate(98.3 92.022156)scale(0.11 -0.11)">
      <use xlink:href="#DejaVuSans-101"/>
      <use x="61.523438" xlink:href="#DejaVuSans-113"/>
      <use x="125" xlink:href="#DejaVuSans-117"/>
      <use x="188.378906" xlink:href="#DejaVuSans-97"/>
      <use x="249.658203" xlink:href="#DejaVuSans-108"/>
      <use x="277.441406" xlink:href="#DejaVuSans-105"/>
      <use x="305.224609" xlink:href="#DejaVuSans-116"/>
      <use x="344.433594" xlink:href="#DejaVuSans-121"/>
      <use x="403.613281" xlink:href="#DejaVuSans-32"/>
      <use x="435.400391" xlink:href="#DejaVuSans-43"/>
      <use x="519.189453" xlink:href="#DejaVuSans-99"/>
      <use x="574.169922" xlink:href="#DejaVuSans-97"/>
      <use x="635.449219" xlink:href="#DejaVuSans-114"/>
      <use x="676.546875" xlink:href="#DejaVuSans-100"/>
      <use x="740.023438" xlink:href="#DejaVuSans-105"/>
      <use x="767.806641" xlink:href="#DejaVuSans-110"/>
      <use x="831.185547" xlink:href="#DejaVuSans-97"/>
      <use x="892.464844" xlink:href="#DejaVuSans-108"/>
      <use x="920.248047" xlink:href="#DejaVuSans-105"/>
      <use x="948.03125" xlink:href="#DejaVuSans-116"/>
      <use x="987.240234" xlink:href="#DejaVuSans-121"/>
     </g>
    </g>
    <g id="line2d_38">
     <path d="M 67.5 104.318094 
L 89.5 104.318094 
" style="fill:none;stroke:#55a868;stroke-linecap:round;stroke-width:1.5;"/>
    </g>
    <g id="line2d_39"/>
    <g id="text_21">
     <!-- equality miss +cardinality -->
     <g style="fill:#262626;" transform="translate(98.3 108.168094)scale(0.11 -0.11)">
      <use xlink:href="#DejaVuSans-101"/>
      <use x="61.523438" xlink:href="#DejaVuSans-113"/>
      <use x="125" xlink:href="#DejaVuSans-117"/>
      <use x="188.378906" xlink:href="#DejaVuSans-97"/>
      <use x="249.658203" xlink:href="#DejaVuSans-108"/>
      <use x="277.441406" xlink:href="#DejaVuSans-105"/>
      <use x="305.224609" xlink:href="#DejaVuSans-116"/>
      <use x="344.433594" xlink:href="#DejaVuSans-121"/>
      <use x="403.613281" xlink:href="#DejaVuSans-32"/>
      <use x="435.400391" xlink:href="#DejaVuSans-109"/>
      <use x="532.8125" xlink:href="#DejaVuSans-105"/>
      <use x="560.595703" xlink:href="#DejaVuSans-115"/>
      <use x="612.695312" xlink:href="#DejaVuSans-115"/>
      <use x="664.794922" xlink:href="#DejaVuSans-32"/>
      <use x="696.582031" xlink:href="#DejaVuSans-43"/>
      <use x="780.371094" xlink:href="#DejaVuSans-99"/>
      <use x="835.351562" xlink:href="#DejaVuSans-97"/>
      <use x="896.630859" xlink:href="#DejaVuSans-114"/>
      <use x="937.728516" xlink:href="#DejaVuSans-100"/>
      <use x="1001.205078" xlink:href="#DejaVuSans-105"/>
      <use x="1028.988281" xlink:href="#DejaVuSans-110"/>
      <use x="1092.367188" xlink:href="#DejaVuSans-97"/>
      <use x="1153.646484" xlink:href="#DejaVuSans-108"/>
      <use x="1181.429688" xlink:href="#DejaVuSans-105"/>
      <use x="1209.212891" xlink:href="#DejaVuSans-116"/>
      <use x="1248.421875" xlink:href="#DejaVuSans-121"/>
     </g>
    </g>
    <g id="line2d_40">
     <path d="M 67.5 120.464031 
L 89.5 120.464031 
" style="fill:none;stroke:#c44e52;stroke-linecap:round;stroke-width:1.5;"/>
    </g>
    <g id="line2d_41"/>
    <g id="text_22">
     <!-- !existence - -cardinality -->
     <defs>
      <path d="M 15.09375 12.40625 
L 25 12.40625 
L 25 0 
L 15.09375 0 
z
M 15.09375 72.90625 
L 25 72.90625 
L 25 40.921875 
L 24.03125 23.484375 
L 16.109375 23.484375 
L 15.09375 40.921875 
z
" id="DejaVuSans-33"/>
      <path d="M 54.890625 54.6875 
L 35.109375 28.078125 
L 55.90625 0 
L 45.3125 0 
L 29.390625 21.484375 
L 13.484375 0 
L 2.875 0 
L 24.125 28.609375 
L 4.6875 54.6875 
L 15.28125 54.6875 
L 29.78125 35.203125 
L 44.28125 54.6875 
z
" id="DejaVuSans-120"/>
     </defs>
     <g style="fill:#262626;" transform="translate(98.3 124.314031)scale(0.11 -0.11)">
      <use xlink:href="#DejaVuSans-33"/>
      <use x="40.087891" xlink:href="#DejaVuSans-101"/>
      <use x="101.595703" xlink:href="#DejaVuSans-120"/>
      <use x="160.775391" xlink:href="#DejaVuSans-105"/>
      <use x="188.558594" xlink:href="#DejaVuSans-115"/>
      <use x="240.658203" xlink:href="#DejaVuSans-116"/>
      <use x="279.867188" xlink:href="#DejaVuSans-101"/>
      <use x="341.390625" xlink:href="#DejaVuSans-110"/>
      <use x="404.769531" xlink:href="#DejaVuSans-99"/>
      <use x="459.75" xlink:href="#DejaVuSans-101"/>
      <use x="521.273438" xlink:href="#DejaVuSans-32"/>
      <use x="553.060547" xlink:href="#DejaVuSans-45"/>
      <use x="589.144531" xlink:href="#DejaVuSans-45"/>
      <use x="625.228516" xlink:href="#DejaVuSans-99"/>
      <use x="680.208984" xlink:href="#DejaVuSans-97"/>
      <use x="741.488281" xlink:href="#DejaVuSans-114"/>
      <use x="782.585938" xlink:href="#DejaVuSans-100"/>
      <use x="846.0625" xlink:href="#DejaVuSans-105"/>
      <use x="873.845703" xlink:href="#DejaVuSans-110"/>
      <use x="937.224609" xlink:href="#DejaVuSans-97"/>
      <use x="998.503906" xlink:href="#DejaVuSans-108"/>
      <use x="1026.287109" xlink:href="#DejaVuSans-105"/>
      <use x="1054.070312" xlink:href="#DejaVuSans-116"/>
      <use x="1093.279297" xlink:href="#DejaVuSans-121"/>
     </g>
    </g>
    <g id="line2d_42">
     <path d="M 67.5 136.609969 
L 89.5 136.609969 
" style="fill:none;stroke:#8172b3;stroke-linecap:round;stroke-width:1.5;"/>
    </g>
    <g id="line2d_43"/>
    <g id="text_23">
     <!-- existence - -cardinality -->
     <g style="fill:#262626;" transform="translate(98.3 140.459969)scale(0.11 -0.11)">
      <use xlink:href="#DejaVuSans-101"/>
      <use x="61.507812" xlink:href="#DejaVuSans-120"/>
      <use x="120.6875" xlink:href="#DejaVuSans-105"/>
      <use x="148.470703" xlink:href="#DejaVuSans-115"/>
      <use x="200.570312" xlink:href="#DejaVuSans-116"/>
      <use x="239.779297" xlink:href="#DejaVuSans-101"/>
      <use x="301.302734" xlink:href="#DejaVuSans-110"/>
      <use x="364.681641" xlink:href="#DejaVuSans-99"/>
      <use x="419.662109" xlink:href="#DejaVuSans-101"/>
      <use x="481.185547" xlink:href="#DejaVuSans-32"/>
      <use x="512.972656" xlink:href="#DejaVuSans-45"/>
      <use x="549.056641" xlink:href="#DejaVuSans-45"/>
      <use x="585.140625" xlink:href="#DejaVuSans-99"/>
      <use x="640.121094" xlink:href="#DejaVuSans-97"/>
      <use x="701.400391" xlink:href="#DejaVuSans-114"/>
      <use x="742.498047" xlink:href="#DejaVuSans-100"/>
      <use x="805.974609" xlink:href="#DejaVuSans-105"/>
      <use x="833.757812" xlink:href="#DejaVuSans-110"/>
      <use x="897.136719" xlink:href="#DejaVuSans-97"/>
      <use x="958.416016" xlink:href="#DejaVuSans-108"/>
      <use x="986.199219" xlink:href="#DejaVuSans-105"/>
      <use x="1013.982422" xlink:href="#DejaVuSans-116"/>
      <use x="1053.191406" xlink:href="#DejaVuSans-121"/>
     </g>
    </g>
    <g id="line2d_44">
     <path d="M 67.5 152.755906 
L 89.5 152.755906 
" style="fill:none;stroke:#937860;stroke-linecap:round;stroke-width:1.5;"/>
    </g>
    <g id="line2d_45"/>
    <g id="text_24">
     <!-- notin -cardinality -->
     <g style="fill:#262626;" transform="translate(98.3 156.605906)scale(0.11 -0.11)">
      <use xlink:href="#DejaVuSans-110"/>
      <use x="63.378906" xlink:href="#DejaVuSans-111"/>
      <use x="124.560547" xlink:href="#DejaVuSans-116"/>
      <use x="163.769531" xlink:href="#DejaVuSans-105"/>
      <use x="191.552734" xlink:href="#DejaVuSans-110"/>
      <use x="254.931641" xlink:href="#DejaVuSans-32"/>
      <use x="286.71875" xlink:href="#DejaVuSans-45"/>
      <use x="322.802734" xlink:href="#DejaVuSans-99"/>
      <use x="377.783203" xlink:href="#DejaVuSans-97"/>
      <use x="439.0625" xlink:href="#DejaVuSans-114"/>
      <use x="480.160156" xlink:href="#DejaVuSans-100"/>
      <use x="543.636719" xlink:href="#DejaVuSans-105"/>
      <use x="571.419922" xlink:href="#DejaVuSans-110"/>
      <use x="634.798828" xlink:href="#DejaVuSans-97"/>
      <use x="696.078125" xlink:href="#DejaVuSans-108"/>
      <use x="723.861328" xlink:href="#DejaVuSans-105"/>
      <use x="751.644531" xlink:href="#DejaVuSans-116"/>
      <use x="790.853516" xlink:href="#DejaVuSans-121"/>
     </g>
    </g>
    <g id="line2d_46">
     <path d="M 67.5 168.901844 
L 89.5 168.901844 
" style="fill:none;stroke:#da8bc3;stroke-linecap:round;stroke-width:1.5;"/>
    </g>
    <g id="line2d_47"/>
    <g id="text_25">
     <!-- in -cardinality -->
     <g style="fill:#262626;" transform="translate(98.3 172.751844)scale(0.11 -0.11)">
      <use xlink:href="#DejaVuSans-105"/>
      <use x="27.783203" xlink:href="#DejaVuSans-110"/>
      <use x="91.162109" xlink:href="#DejaVuSans-32"/>
      <use x="122.949219" xlink:href="#DejaVuSans-45"/>
      <use x="159.033203" xlink:href="#DejaVuSans-99"/>
      <use x="214.013672" xlink:href="#DejaVuSans-97"/>
      <use x="275.292969" xlink:href="#DejaVuSans-114"/>
      <use x="316.390625" xlink:href="#DejaVuSans-100"/>
      <use x="379.867188" xlink:href="#DejaVuSans-105"/>
      <use x="407.650391" xlink:href="#DejaVuSans-110"/>
      <use x="471.029297" xlink:href="#DejaVuSans-97"/>
      <use x="532.308594" xlink:href="#DejaVuSans-108"/>
      <use x="560.091797" xlink:href="#DejaVuSans-105"/>
      <use x="587.875" xlink:href="#DejaVuSans-116"/>
      <use x="627.083984" xlink:href="#DejaVuSans-121"/>
     </g>
    </g>
    <g id="line2d_48">
     <path d="M 67.5 185.047781 
L 89.5 185.047781 
" style="fill:none;stroke:#8c8c8c;stroke-linecap:round;stroke-width:1.5;"/>
    </g>
    <g id="line2d_49"/>
    <g id="text_26">
     <!-- specific composite -->
     <defs>
      <path d="M 37.109375 75.984375 
L 37.109375 68.5 
L 28.515625 68.5 
Q 23.6875 68.5 21.796875 66.546875 
Q 19.921875 64.59375 19.921875 59.515625 
L 19.921875 54.6875 
L 34.71875 54.6875 
L 34.71875 47.703125 
L 19.921875 47.703125 
L 19.921875 0 
L 10.890625 0 
L 10.890625 47.703125 
L 2.296875 47.703125 
L 2.296875 54.6875 
L 10.890625 54.6875 
L 10.890625 58.5 
Q 10.890625 67.625 15.140625 71.796875 
Q 19.390625 75.984375 28.609375 75.984375 
z
" id="DejaVuSans-102"/>
     </defs>
     <g style="fill:#262626;" transform="translate(98.3 188.897781)scale(0.11 -0.11)">
      <use xlink:href="#DejaVuSans-115"/>
      <use x="52.099609" xlink:href="#DejaVuSans-112"/>
      <use x="115.576172" xlink:href="#DejaVuSans-101"/>
      <use x="177.099609" xlink:href="#DejaVuSans-99"/>
      <use x="232.080078" xlink:href="#DejaVuSans-105"/>
      <use x="259.863281" xlink:href="#DejaVuSans-102"/>
      <use x="295.068359" xlink:href="#DejaVuSans-105"/>
      <use x="322.851562" xlink:href="#DejaVuSans-99"/>
      <use x="377.832031" xlink:href="#DejaVuSans-32"/>
      <use x="409.619141" xlink:href="#DejaVuSans-99"/>
      <use x="464.599609" xlink:href="#DejaVuSans-111"/>
      <use x="525.78125" xlink:href="#DejaVuSans-109"/>
      <use x="623.193359" xlink:href="#DejaVuSans-112"/>
      <use x="686.669922" xlink:href="#DejaVuSans-111"/>
      <use x="747.851562" xlink:href="#DejaVuSans-115"/>
      <use x="799.951172" xlink:href="#DejaVuSans-105"/>
      <use x="827.734375" xlink:href="#DejaVuSans-116"/>
      <use x="866.943359" xlink:href="#DejaVuSans-101"/>
     </g>
    </g>
   </g>
  </g>
 </g>
 <defs>
  <clipPath id="p3d90bd6c48">
   <rect height="266.112" width="357.12" x="57.6" y="41.472"/>
  </clipPath>
 </defs>
</svg>
